<?xml version="1.0" encoding="UTF-8" standalone="no"?>
<!-- Created with Inkscape (http://www.inkscape.org/) -->

<svg
   xmlns:dc="http://purl.org/dc/elements/1.1/"
   xmlns:cc="http://creativecommons.org/ns#"
   xmlns:rdf="http://www.w3.org/1999/02/22-rdf-syntax-ns#"
   xmlns:svg="http://www.w3.org/2000/svg"
   xmlns="http://www.w3.org/2000/svg"
   xmlns:sodipodi="http://sodipodi.sourceforge.net/DTD/sodipodi-0.dtd"
   xmlns:inkscape="http://www.inkscape.org/namespaces/inkscape"
   width="119.999"
   height="119.91598"
   id="svg2"
   version="1.1"
   inkscape:version="0.48.1 "
   sodipodi:docname="apsis.svg">
  <defs
     id="defs4" />
  <sodipodi:namedview
     id="base"
     pagecolor="#ffffff"
     bordercolor="#666666"
     borderopacity="1.0"
     inkscape:pageopacity="0.0"
     inkscape:pageshadow="2"
     inkscape:zoom="3.2844537"
     inkscape:cx="26.079063"
     inkscape:cy="63.060271"
     inkscape:document-units="px"
     inkscape:current-layer="layer1"
     showgrid="false"
     fit-margin-top="10"
     fit-margin-left="10"
     fit-margin-bottom="10"
     fit-margin-right="10"
     inkscape:window-width="1366"
     inkscape:window-height="746"
     inkscape:window-x="-8"
     inkscape:window-y="-8"
     inkscape:window-maximized="1" />
  <metadata
     id="metadata7">
    <rdf:RDF>
      <cc:Work
         rdf:about="">
        <dc:format>image/svg+xml</dc:format>
        <dc:type
           rdf:resource="http://purl.org/dc/dcmitype/StillImage" />
        <dc:title></dc:title>
      </cc:Work>
    </rdf:RDF>
  </metadata>
  <g
     inkscape:label="Layer 1"
     inkscape:groupmode="layer"
     id="layer1"
     transform="translate(-6.0005,-8.40419)">
    <path
       style="color:#000000;fill:#000000;fill-opacity:1;fill-rule:nonzero;stroke:none;stroke-width:4;marker:none;visibility:visible;display:inline;overflow:visible;enable-background:accumulate"
       d="m 46.555904,53.935441 -28.4375,0 0,28.84375 28.4375,0 25.375,19.812499 0,-68.468749 z"
       id="rect3013"
       inkscape:connector-curvature="0"
       sodipodi:nodetypes="ccccccc" />
    <path
       id="path3018-1"
       style="fill:#000000;stroke:none"
       d="m 83.552535,99.508103 c 10.96808,-31.650719 11.17143,-31.558989 0,-62.291849 -1.454602,0 -2.030387,0.449665 -2.09836,2.09836 10.042045,28.699967 10.290449,28.70318 0,58.095129 0,1.62749 0.618811,2.09836 2.09836,2.09836 z"
       inkscape:connector-curvature="0"
       sodipodi:nodetypes="ccccc" />
    <path
       id="path3018-1-2"
       style="fill:#000000;stroke:none"
       d="m 92.691949,107.38207 c 13.740911,-39.6523 13.995671,-39.537382 0,-78.039781 -1.822339,0 -2.543686,0.563345 -2.628844,2.628845 12.580765,35.955573 12.891965,35.959597 0,72.782096 0,2.03893 0.775251,2.62884 2.628844,2.62884 z"
       inkscape:connector-curvature="0"
       sodipodi:nodetypes="ccccc" />
    <path
       id="path3018-1-3"
       style="fill:#000000;stroke:none"
       d="m 103.16541,114.40956 c 16.21564,-46.793689 16.51628,-46.658071 0,-92.094764 -2.15055,0 -3.00181,0.664802 -3.10231,3.1023 14.84656,42.431182 15.21381,42.435931 0,85.890164 0,2.40615 0.91488,3.1023 3.10231,3.1023 z"
       inkscape:connector-curvature="0"
       sodipodi:nodetypes="ccccc" />
  </g>
</svg>
