<?xml version="1.0" encoding="UTF-8" standalone="no"?>
<!-- Created with Inkscape (http://www.inkscape.org/) -->

<svg
   xmlns:dc="http://purl.org/dc/elements/1.1/"
   xmlns:cc="http://creativecommons.org/ns#"
   xmlns:rdf="http://www.w3.org/1999/02/22-rdf-syntax-ns#"
   xmlns:svg="http://www.w3.org/2000/svg"
   xmlns="http://www.w3.org/2000/svg"
   xmlns:sodipodi="http://sodipodi.sourceforge.net/DTD/sodipodi-0.dtd"
   xmlns:inkscape="http://www.inkscape.org/namespaces/inkscape"
   width="119.999"
   height="119.91598"
   id="svg2"
   version="1.1"
   inkscape:version="0.48.1 "
   sodipodi:docname="apsis-docs.svg">
  <defs
     id="defs4" />
  <sodipodi:namedview
     id="base"
     pagecolor="#ffffff"
     bordercolor="#666666"
     borderopacity="1.0"
     inkscape:pageopacity="0.0"
     inkscape:pageshadow="2"
     inkscape:zoom="0.5"
     inkscape:cx="337.32457"
     inkscape:cy="-107.5402"
     inkscape:document-units="px"
     inkscape:current-layer="layer1"
     showgrid="false"
     fit-margin-top="10"
     fit-margin-left="10"
     fit-margin-bottom="10"
     fit-margin-right="10"
     inkscape:window-width="1366"
     inkscape:window-height="746"
     inkscape:window-x="-8"
     inkscape:window-y="-8"
     inkscape:window-maximized="1" />
  <metadata
     id="metadata7">
    <rdf:RDF>
      <cc:Work
         rdf:about="">
        <dc:format>image/svg+xml</dc:format>
        <dc:type
           rdf:resource="http://purl.org/dc/dcmitype/StillImage" />
        <dc:title></dc:title>
      </cc:Work>
    </rdf:RDF>
  </metadata>
  <g
     inkscape:label="Layer 1"
     inkscape:groupmode="layer"
     id="layer1"
     transform="translate(-6.0005,-8.40419)">
    <path
       id="path2986"
       d="m 111.5255,71.09019 c -5.582,-1.496 -6.847,-14.585 -2.268,-17.228 1.501,-0.87 2.665,-2.104 3.434,-3.527 -1.191,-4.343 -5.255,-10.6 -7.548,-13.383 -1.676,-0.078 -3.39,0.305 -4.95,1.206 -4.995,2.886 -15.321,-4.833 -13.783,-10.578 0.481,-1.795 0.227,-3.972 -0.165,-5.244 -2.839,-1.468 -9.562,-3.443 -14.555,-3.932 -1.076,0.783 -2.308,2.676 -2.788,4.483 -1.629,6.075 -14.52,6.958 -17.285,2.17 -0.923,-1.6 -2.623,-3.09 -3.798,-3.58 -3.23,0.979 -10.249,5.048 -13.088,7.397 0.196,1.664 0.234,3.597 1.188,5.247 2.763,4.789 -4.72,15.438 -10.629,13.855 -1.944,-0.52 -3.984,-0.372 -5.648,0.313 -1.371,3.036 -3.446,11.043 -3.642,14.273 0.392,0.881 2.729,2.428 4.598,2.928 8.043,2.156 8.106,13.951 2.279,17.315 -1.646,0.951 -3.056,2.271 -3.643,3.936 0.979,3.132 4.913,10.018 7.458,12.955 1.664,0.195 3.597,-0.232 5.248,-1.187 5.204,-3.007 15.612,4.064 13.853,10.631 -0.457,1.709 -0.204,3.507 0.089,5.27 3.916,1.664 11,4.005 14.916,3.907 1.272,-1.175 2.057,-2.812 2.504,-4.483 1.54,-5.748 14.253,-7.582 17.257,-2.378 0.839,1.455 2.014,2.836 3.384,3.619 4.111,-1.175 11.338,-5.219 13.788,-7.764 0.096,-1.859 -0.604,-3.412 -1.474,-4.922 -3.247,-5.619 4.338,-15.458 10.575,-13.786 1.708,0.456 3.568,0.302 5.135,-0.089 1.37,-3.427 3.642,-9.549 4.032,-14.639 -1.37,-1.566 -2.67,-2.301 -4.474,-2.785 z m -19.004,3.797 c -3.807,14.217 -18.417,22.651 -32.632,18.843 -14.213,-3.81 -22.647,-18.423 -18.839,-32.639 3.808,-14.216 18.418,-22.651 32.631,-18.842 14.214,3.809 22.649,18.42 18.84,32.638 z"
       clip-rule="evenodd"
       inkscape:connector-curvature="0"
       style="fill-rule:evenodd" />
  </g>
</svg>
