<?xml version="1.0" encoding="UTF-8" standalone="no"?>
<!-- Created with Inkscape (http://www.inkscape.org/) -->

<svg
   xmlns:dc="http://purl.org/dc/elements/1.1/"
   xmlns:cc="http://creativecommons.org/ns#"
   xmlns:rdf="http://www.w3.org/1999/02/22-rdf-syntax-ns#"
   xmlns:svg="http://www.w3.org/2000/svg"
   xmlns="http://www.w3.org/2000/svg"
   xmlns:sodipodi="http://sodipodi.sourceforge.net/DTD/sodipodi-0.dtd"
   xmlns:inkscape="http://www.inkscape.org/namespaces/inkscape"
   width="119.999"
   height="119.91598"
   id="svg2"
   version="1.1"
   inkscape:version="0.48.1 "
   sodipodi:docname="audio.svg">
  <defs
     id="defs4" />
  <sodipodi:namedview
     id="base"
     pagecolor="#ffffff"
     bordercolor="#666666"
     borderopacity="1.0"
     inkscape:pageopacity="0.0"
     inkscape:pageshadow="2"
     inkscape:zoom="4.644919"
     inkscape:cx="59.9995"
     inkscape:cy="59.957989"
     inkscape:document-units="px"
     inkscape:current-layer="layer1"
     showgrid="false"
     fit-margin-top="10"
     fit-margin-left="10"
     fit-margin-bottom="10"
     fit-margin-right="10"
     inkscape:window-width="1366"
     inkscape:window-height="746"
     inkscape:window-x="-8"
     inkscape:window-y="-8"
     inkscape:window-maximized="1" />
  <metadata
     id="metadata7">
    <rdf:RDF>
      <cc:Work
         rdf:about="">
        <dc:format>image/svg+xml</dc:format>
        <dc:type
           rdf:resource="http://purl.org/dc/dcmitype/StillImage" />
        <dc:title></dc:title>
      </cc:Work>
    </rdf:RDF>
  </metadata>
  <g
     inkscape:label="Layer 1"
     inkscape:groupmode="layer"
     id="layer1"
     transform="translate(-6.0005,-8.40419)">
    <path
       style="color:#000000;fill:#000000;fill-opacity:1;fill-rule:nonzero;stroke:none;stroke-width:4;marker:none;visibility:visible;display:inline;overflow:visible;enable-background:accumulate"
       d="M 59.21875 25.0625 C 57.272486 25.093488 55.359636 25.205256 53.46875 25.4375 L 53.96875 29.34375 L 52.90625 29.5 L 52.375 25.5625 C 50.517214 25.829342 48.666514 26.204834 46.875 26.65625 L 48.78125 33.84375 L 47.125 34.28125 L 45.21875 27.125 C 43.391319 27.648631 41.617368 28.262465 39.875 28.96875 L 41.375 32.5625 L 40.375 32.96875 L 38.875 29.375 C 37.150087 30.115143 35.470296 30.934236 33.84375 31.84375 L 37.53125 38.25 L 36.0625 39.125 L 32.34375 32.6875 C 30.726398 33.660866 29.188501 34.7424 27.6875 35.875 L 30.0625 38.9375 L 29.21875 39.59375 L 26.84375 36.53125 C 25.369551 37.689887 23.938382 38.915428 22.59375 40.21875 L 27.8125 45.4375 L 26.59375 46.65625 L 21.375 41.4375 C 20.073815 42.781673 18.84429 44.182789 17.6875 45.65625 L 20.78125 48.03125 L 20.125 48.875 L 17.03125 46.53125 C 15.904458 48.027607 14.843817 49.575777 13.875 51.1875 L 20.28125 54.875 L 19.4375 56.375 L 13 52.65625 C 12.088437 54.287386 11.272653 55.988811 10.53125 57.71875 L 14.15625 59.21875 L 13.75 60.21875 L 10.125 58.71875 C 9.4261364 60.445687 8.8322049 62.220894 8.3125 64.03125 L 15.46875 65.96875 L 15.03125 67.625 L 7.84375 65.6875 C 7.3745972 67.544471 7.0208193 69.447054 6.75 71.375 L 10.65625 71.875 L 10.5 72.9375 L 6.59375 72.4375 C 6.3836464 74.184623 6.2575966 75.955674 6.21875 77.75 C 6.2176192 77.801951 6.2202832 77.85429 6.21875 77.90625 L 13.8125 77.90625 L 13.8125 79.625 L 6.1875 79.625 C 6.1938871 79.864697 6.212624 80.104759 6.21875 80.34375 L 6.21875 93.25 L 14.21875 93.25 L 14.21875 84.4375 L 15.9375 84.4375 L 15.9375 93.25 L 19.71875 93.25 L 19.71875 88.78125 L 20.78125 88.78125 L 20.78125 93.25 L 24.21875 93.25 L 24.21875 84.4375 L 25.9375 84.4375 L 25.9375 93.25 L 29.71875 93.25 L 29.71875 88.78125 L 30.78125 88.78125 L 30.78125 93.25 L 34.21875 93.25 L 34.21875 84.4375 L 35.9375 84.4375 L 35.9375 93.25 L 39.71875 93.25 L 39.71875 88.78125 L 40.78125 88.78125 L 40.78125 93.25 L 44.21875 93.25 L 44.21875 84.4375 L 45.9375 84.4375 L 45.9375 93.25 L 49.71875 93.25 L 49.71875 88.78125 L 50.78125 88.78125 L 50.78125 93.25 L 54.21875 93.25 L 54.21875 84.4375 L 55.9375 84.4375 L 55.9375 93.25 L 59.71875 93.25 L 59.71875 88.78125 L 60.78125 88.78125 L 60.78125 93.25 L 64.21875 93.25 L 64.21875 84.4375 L 65.9375 84.4375 L 65.9375 93.25 L 69.71875 93.25 L 69.71875 88.78125 L 70.78125 88.78125 L 70.78125 93.25 L 74.21875 93.25 L 74.21875 84.4375 L 75.9375 84.4375 L 75.9375 93.25 L 79.71875 93.25 L 79.71875 88.78125 L 80.78125 88.78125 L 80.78125 93.25 L 84.21875 93.25 L 84.21875 84.4375 L 85.9375 84.4375 L 85.9375 93.25 L 89.71875 93.25 L 89.71875 88.78125 L 90.78125 88.78125 L 90.78125 93.25 L 94.21875 93.25 L 94.21875 84.4375 L 95.9375 84.4375 L 95.9375 93.25 L 99.71875 93.25 L 99.71875 88.78125 L 100.78125 88.78125 L 100.78125 93.25 L 104.21875 93.25 L 104.21875 84.4375 L 105.9375 84.4375 L 105.9375 93.25 L 113.96875 93.25 L 113.96875 79.625 L 106.34375 79.625 L 106.34375 77.90625 L 113.96875 77.90625 L 113.96875 77.75 L 113.9375 77.75 C 113.89847 75.945102 113.74332 74.163363 113.53125 72.40625 L 109.5 72.9375 L 109.34375 71.875 L 113.375 71.34375 C 113.10325 69.415265 112.75124 67.513628 112.28125 65.65625 L 104.96875 67.625 L 104.53125 65.96875 L 111.84375 64 C 111.3203 62.178367 110.70468 60.393289 110 58.65625 L 106.25 60.21875 L 105.84375 59.21875 L 109.59375 57.6875 C 108.84706 55.9462 108.01272 54.234782 107.09375 52.59375 L 100.5625 56.375 L 99.71875 54.875 L 106.21875 51.125 C 105.24335 49.506157 104.19731 47.939537 103.0625 46.4375 L 99.875 48.875 L 99.21875 48.03125 L 102.40625 45.59375 C 101.24338 44.11616 99.995725 42.722029 98.6875 41.375 L 93.40625 46.65625 L 92.1875 45.4375 L 97.46875 40.15625 C 96.115412 38.848804 94.70279 37.598468 93.21875 36.4375 L 90.78125 39.59375 L 89.9375 38.9375 L 92.375 35.78125 C 90.874945 34.655147 89.303189 33.592244 87.6875 32.625 L 83.9375 39.125 L 82.46875 38.25 L 86.1875 31.78125 C 84.557501 30.875571 82.88459 30.04819 81.15625 29.3125 L 79.625 32.96875 L 78.625 32.5625 L 80.15625 28.90625 C 78.419998 28.208221 76.632917 27.579243 74.8125 27.0625 L 72.875 34.28125 L 71.21875 33.84375 L 73.125 26.625 C 71.324756 26.177 69.491935 25.824126 67.625 25.5625 L 67.09375 29.5 L 66.03125 29.34375 L 66.5625 25.40625 C 64.716003 25.184963 62.836805 25.091997 60.9375 25.0625 L 60.9375 32.5 L 59.21875 32.5 L 59.21875 25.0625 z M 60.09375 39.46875 C 81.492 39.46875 98.90185 56.504096 99.53125 77.75 L 20.65625 77.75 C 21.28565 56.504096 38.6955 39.46875 60.09375 39.46875 z "
       id="path3091-4"
       transform="translate(6.0005,8.40419)" />
  </g>
</svg>
