<?xml version="1.0" encoding="UTF-8" standalone="no"?>
<!-- Created with Inkscape (http://www.inkscape.org/) -->

<svg
   xmlns:dc="http://purl.org/dc/elements/1.1/"
   xmlns:cc="http://creativecommons.org/ns#"
   xmlns:rdf="http://www.w3.org/1999/02/22-rdf-syntax-ns#"
   xmlns:svg="http://www.w3.org/2000/svg"
   xmlns="http://www.w3.org/2000/svg"
   xmlns:sodipodi="http://sodipodi.sourceforge.net/DTD/sodipodi-0.dtd"
   xmlns:inkscape="http://www.inkscape.org/namespaces/inkscape"
   width="119.999"
   height="119.91598"
   id="svg2"
   version="1.1"
   inkscape:version="0.48.1 "
   sodipodi:docname="geometry.svg">
  <defs
     id="defs4" />
  <sodipodi:namedview
     id="base"
     pagecolor="#ffffff"
     bordercolor="#666666"
     borderopacity="1.0"
     inkscape:pageopacity="0.0"
     inkscape:pageshadow="2"
     inkscape:zoom="4.644919"
     inkscape:cx="59.689071"
     inkscape:cy="60.435445"
     inkscape:document-units="px"
     inkscape:current-layer="layer1"
     showgrid="false"
     fit-margin-top="10"
     fit-margin-left="10"
     fit-margin-bottom="10"
     fit-margin-right="10"
     inkscape:window-width="1366"
     inkscape:window-height="746"
     inkscape:window-x="-8"
     inkscape:window-y="-8"
     inkscape:window-maximized="1" />
  <metadata
     id="metadata7">
    <rdf:RDF>
      <cc:Work
         rdf:about="">
        <dc:format>image/svg+xml</dc:format>
        <dc:type
           rdf:resource="http://purl.org/dc/dcmitype/StillImage" />
        <dc:title></dc:title>
      </cc:Work>
    </rdf:RDF>
  </metadata>
  <g
     inkscape:label="Layer 1"
     inkscape:groupmode="layer"
     id="layer1"
     transform="translate(-6.0005,-8.40419)">
    <path
       style="color:#000000;fill:#000000;fill-opacity:1;fill-rule:nonzero;stroke:none;stroke-width:4;marker:none;visibility:visible;display:inline;overflow:visible;enable-background:accumulate"
       d="M 59.21875 25.0625 C 54.972473 25.130109 50.828265 25.660127 46.875 26.65625 L 48.78125 33.84375 L 47.125 34.28125 L 45.21875 27.125 C 41.212846 28.272848 37.408977 29.850187 33.84375 31.84375 L 37.53125 38.25 L 36.0625 39.125 L 32.34375 32.6875 C 28.807161 34.815914 25.540977 37.362068 22.59375 40.21875 L 27.8125 45.4375 L 26.59375 46.65625 L 21.375 41.4375 C 18.520874 44.385919 16.001294 47.650198 13.875 51.1875 L 20.28125 54.875 L 19.4375 56.375 L 13 52.65625 C 11.011784 56.213934 9.4596679 60.035169 8.3125 64.03125 L 15.46875 65.96875 L 15.03125 67.625 L 7.84375 65.6875 C 6.8660821 69.557242 6.3086266 73.598595 6.21875 77.75 C 6.2176192 77.801951 6.2202832 77.85429 6.21875 77.90625 L 13.8125 77.90625 L 13.8125 79.625 L 6.1875 79.625 C 6.1938871 79.864697 6.212624 80.104759 6.21875 80.34375 L 6.21875 93.25 L 14.21875 93.25 L 14.21875 84.4375 L 15.9375 84.4375 L 15.9375 93.25 L 24.21875 93.25 L 24.21875 84.4375 L 25.9375 84.4375 L 25.9375 93.25 L 34.21875 93.25 L 34.21875 84.4375 L 35.9375 84.4375 L 35.9375 93.25 L 44.21875 93.25 L 44.21875 84.4375 L 45.9375 84.4375 L 45.9375 93.25 L 54.21875 93.25 L 54.21875 84.4375 L 55.9375 84.4375 L 55.9375 93.25 L 64.21875 93.25 L 64.21875 84.4375 L 65.9375 84.4375 L 65.9375 93.25 L 74.21875 93.25 L 74.21875 84.4375 L 75.9375 84.4375 L 75.9375 93.25 L 84.21875 93.25 L 84.21875 84.4375 L 85.9375 84.4375 L 85.9375 93.25 L 94.21875 93.25 L 94.21875 84.4375 L 95.9375 84.4375 L 95.9375 93.25 L 104.21875 93.25 L 104.21875 84.4375 L 105.9375 84.4375 L 105.9375 93.25 L 113.96875 93.25 L 113.96875 79.625 L 106.34375 79.625 L 106.34375 77.90625 L 113.96875 77.90625 L 113.96875 77.75 L 113.9375 77.75 C 113.84747 73.586621 113.26302 69.536191 112.28125 65.65625 L 104.96875 67.625 L 104.53125 65.96875 L 111.84375 64 C 110.69193 59.991615 109.09103 56.160353 107.09375 52.59375 L 100.5625 56.375 L 99.71875 54.875 L 106.21875 51.125 C 104.08401 47.582015 101.55264 44.325128 98.6875 41.375 L 93.40625 46.65625 L 92.1875 45.4375 L 97.46875 40.15625 C 94.511279 37.299067 91.236026 34.749349 87.6875 32.625 L 83.9375 39.125 L 82.46875 38.25 L 86.1875 31.78125 C 82.624715 29.801654 78.813558 28.198238 74.8125 27.0625 L 72.875 34.28125 L 71.21875 33.84375 L 73.125 26.625 C 69.213614 25.651632 65.135495 25.127697 60.9375 25.0625 L 60.9375 32.5 L 59.21875 32.5 L 59.21875 25.0625 z M 60.09375 39.46875 C 81.492 39.46875 98.90185 56.504096 99.53125 77.75 L 20.65625 77.75 C 21.28565 56.504096 38.6955 39.46875 60.09375 39.46875 z "
       transform="translate(6.0005,8.40419)"
       id="path3091-4" />
  </g>
</svg>
