<?xml version="1.0" encoding="UTF-8" standalone="no"?>
<!-- Created with Inkscape (http://www.inkscape.org/) -->

<svg
   xmlns:dc="http://purl.org/dc/elements/1.1/"
   xmlns:cc="http://creativecommons.org/ns#"
   xmlns:rdf="http://www.w3.org/1999/02/22-rdf-syntax-ns#"
   xmlns:svg="http://www.w3.org/2000/svg"
   xmlns="http://www.w3.org/2000/svg"
   xmlns:sodipodi="http://sodipodi.sourceforge.net/DTD/sodipodi-0.dtd"
   xmlns:inkscape="http://www.inkscape.org/namespaces/inkscape"
   width="119.999"
   height="119.91598"
   id="svg2"
   version="1.1"
   inkscape:version="0.48.1 "
   sodipodi:docname="sprite.svg">
  <defs
     id="defs4" />
  <sodipodi:namedview
     id="base"
     pagecolor="#ffffff"
     bordercolor="#666666"
     borderopacity="1.0"
     inkscape:pageopacity="0.0"
     inkscape:pageshadow="2"
     inkscape:zoom="4.644919"
     inkscape:cx="59.9995"
     inkscape:cy="59.957989"
     inkscape:document-units="px"
     inkscape:current-layer="layer1"
     showgrid="false"
     fit-margin-top="10"
     fit-margin-left="10"
     fit-margin-bottom="10"
     fit-margin-right="10"
     inkscape:window-width="1366"
     inkscape:window-height="746"
     inkscape:window-x="-8"
     inkscape:window-y="-8"
     inkscape:window-maximized="1" />
  <metadata
     id="metadata7">
    <rdf:RDF>
      <cc:Work
         rdf:about="">
        <dc:format>image/svg+xml</dc:format>
        <dc:type
           rdf:resource="http://purl.org/dc/dcmitype/StillImage" />
        <dc:title></dc:title>
      </cc:Work>
    </rdf:RDF>
  </metadata>
  <g
     inkscape:label="Layer 1"
     inkscape:groupmode="layer"
     id="layer1"
     transform="translate(-6.0005,-8.40419)">
    <path
       style="font-size:medium;font-style:normal;font-variant:normal;font-weight:normal;font-stretch:normal;text-indent:0;text-align:start;text-decoration:none;line-height:normal;letter-spacing:normal;word-spacing:normal;text-transform:none;direction:ltr;block-progression:tb;writing-mode:lr-tb;text-anchor:start;baseline-shift:baseline;color:#000000;fill:#000000;fill-opacity:1;stroke:none;stroke-width:1px;marker:none;visibility:visible;display:inline;overflow:visible;enable-background:accumulate;font-family:Sans;-inkscape-font-specification:Sans"
       d="m 65.984375,18.252804 -0.25,0.125 -42.9375,24.78125 -0.25,0.15625 0,0.28125 0.09375,49.53125 0,0.28125 0.25,0.15625 42.90625,24.749996 0.25,0.15625 0.25,-0.15625 42.906255,-24.781246 0.25,-0.125 0,-0.3125 0,-49.46875 0,-0.28125 -0.25,-0.15625 -42.968755,-24.8125 -0.25,-0.125 z m 0,1.15625 41.843755,24.15625 -41.812505,24.125 -41.875,-24.15625 41.84375,-24.125 z m -42.4375,24.9375 42.0625,24.28125 0,48.406246 -41.96875,-24.187496 -0.09375,-48.5 z m 84.906255,0.03125 0,48.46875 -41.843755,24.124996 0,-48.468746 41.843755,-24.125 z"
       id="path7899"
       inkscape:connector-curvature="0" />
    <path
       style="fill:#000000;stroke:none"
       d="m 26.459505,49.118034 c 0,26.389039 0,42.14916 0,42.14916 l 36.45544,21.047556 c 0,-42.305393 0,-42.48865 0,-42.48865 z"
       id="path7902"
       inkscape:connector-curvature="0" />
    <path
       style="fill:#000000;stroke:none"
       d="m 105.77611,49.118034 c 0,26.389038 0,42.149159 0,42.149159 L 69.320661,112.31475 c 0,-42.305394 0,-42.488651 0,-42.488651 z"
       id="path7902-3"
       inkscape:connector-curvature="0" />
    <path
       style="fill:#000000;stroke:none"
       d="M 102.69497,43.484907 C 79.841391,30.290388 66.192726,22.410328 66.192726,22.410328 L 29.737283,43.457885 c 36.63755,21.152701 36.796255,21.244331 36.796255,21.244331 z"
       id="path7902-2"
       inkscape:connector-curvature="0" />
  </g>
</svg>
