<?xml version="1.0" encoding="UTF-8" standalone="no"?>
<!-- Created with Inkscape (http://www.inkscape.org/) -->

<svg
   xmlns:dc="http://purl.org/dc/elements/1.1/"
   xmlns:cc="http://creativecommons.org/ns#"
   xmlns:rdf="http://www.w3.org/1999/02/22-rdf-syntax-ns#"
   xmlns:svg="http://www.w3.org/2000/svg"
   xmlns="http://www.w3.org/2000/svg"
   xmlns:sodipodi="http://sodipodi.sourceforge.net/DTD/sodipodi-0.dtd"
   xmlns:inkscape="http://www.inkscape.org/namespaces/inkscape"
   width="120"
   height="120"
   id="svg2"
   version="1.1"
   inkscape:version="0.48.2 r9819"
   sodipodi:docname="New document 1">
  <defs
     id="defs4" />
  <sodipodi:namedview
     id="base"
     pagecolor="#ffffff"
     bordercolor="#666666"
     borderopacity="1.0"
     inkscape:pageopacity="0.0"
     inkscape:pageshadow="2"
     inkscape:zoom="1.979899"
     inkscape:cx="144.98903"
     inkscape:cy="80.326842"
     inkscape:document-units="px"
     inkscape:current-layer="layer1"
     showgrid="false"
     fit-margin-top="10"
     fit-margin-left="10"
     fit-margin-right="10"
     fit-margin-bottom="10"
     inkscape:window-width="1920"
     inkscape:window-height="1058"
     inkscape:window-x="-8"
     inkscape:window-y="-8"
     inkscape:window-maximized="1" />
  <metadata
     id="metadata7">
    <rdf:RDF>
      <cc:Work
         rdf:about="">
        <dc:format>image/svg+xml</dc:format>
        <dc:type
           rdf:resource="http://purl.org/dc/dcmitype/StillImage" />
        <dc:title></dc:title>
      </cc:Work>
    </rdf:RDF>
  </metadata>
  <g
     inkscape:label="Layer 1"
     inkscape:groupmode="layer"
     id="layer1"
     transform="translate(4.1799602,5.1230773)">
    <g
       id="g3001"
       transform="matrix(1.1212183,0,0,1.1212183,-0.24087539,-1.1842729)">
      <g
         id="Layer_2">
</g>
      <g
         id="Layer_1">
	<g
   id="g2989">
		<path
   id="path2991"
   d="m 55.071,2.212 c -2.947,-2.949 -7.731,-2.949 -10.681,0 L 2.21,44.396 c -2.947,2.948 -2.947,7.729 0.002,10.678 L 44.926,97.79 c 2.949,2.947 7.729,2.947 10.679,0 L 97.789,55.608 c 2.948,-2.949 2.948,-7.732 0,-10.68 L 55.071,2.212 z M 93.546,51.366 51.362,93.547 c -0.376,0.375 -0.804,0.454 -1.099,0.454 -0.293,0 -0.721,-0.079 -1.096,-0.454 L 6.454,50.831 C 6.077,50.454 5.999,50.026 5.999,49.733 c 0,-0.293 0.078,-0.721 0.453,-1.095 L 48.633,6.455 C 49.01,6.079 49.438,6 49.73,6 c 0.292,0 0.721,0.079 1.096,0.453 l 42.72,42.718 c 0.375,0.375 0.453,0.804 0.453,1.096 0,0.295 -0.078,0.723 -0.453,1.099 z"
   inkscape:connector-curvature="0" />

		
	</g>

</g>
    </g>
  </g>
</svg>
