<svg xmlns:dc="http://purl.org/dc/elements/1.1/" xmlns:cc="http://creativecommons.org/ns#" xmlns:rdf="http://www.w3.org/1999/02/22-rdf-syntax-ns#" xmlns:svg="http://www.w3.org/2000/svg" xmlns="http://www.w3.org/2000/svg" xmlns:sodipodi="http://sodipodi.sourceforge.net/DTD/sodipodi-0.dtd" xmlns:inkscape="http://www.inkscape.org/namespaces/inkscape" width="100" height="100" viewBox="0 0 80 80" version="1.1" id="svg2" inkscape:version="0.48.2 r9819" sodipodi:docname="blank.svg">
  <metadata id="metadata10">
    <rdf:RDF>
      <cc:Work rdf:about="">
        <dc:format>image/svg+xml</dc:format>
        <dc:type rdf:resource="http://purl.org/dc/dcmitype/StillImage"/>
        <dc:title/>
      </cc:Work>
    </rdf:RDF>
  </metadata>
  <defs id="defs8">
    <inkscape:path-effect is_visible="true" id="path-effect5043" effect="spiro"/>
    <inkscape:path-effect is_visible="true" id="path-effect5065" effect="spiro"/>
    <marker inkscape:stockid="TriangleOutM" orient="auto" refY="0" refX="0" id="TriangleOutM" style="overflow:visible">
      <path inkscape:connector-curvature="0" id="path4281" d="m 5.77,0 -8.65,5 0,-10 8.65,5 z" style="fill-rule:evenodd;stroke:#000000;stroke-width:1pt;marker-start:none" transform="scale(0.4,0.4)"/>
    </marker>
    <marker inkscape:stockid="TriangleOutM" orient="auto" refY="0" refX="0" id="marker4230" style="overflow:visible">
      <path inkscape:connector-curvature="0" id="path4232" d="m 5.77,0 -8.65,5 0,-10 8.65,5 z" style="fill-rule:evenodd;stroke:#000000;stroke-width:1pt;marker-start:none" transform="scale(0.4,0.4)"/>
    </marker>
    <marker inkscape:stockid="TriangleOutM" orient="auto" refY="0" refX="0" id="marker4234" style="overflow:visible">
      <path inkscape:connector-curvature="0" id="path4236" d="m 5.77,0 -8.65,5 0,-10 8.65,5 z" style="fill-rule:evenodd;stroke:#000000;stroke-width:1pt;marker-start:none" transform="scale(0.4,0.4)"/>
    </marker>
    <marker inkscape:stockid="TriangleOutM" orient="auto" refY="0" refX="0" id="marker4238" style="overflow:visible">
      <path inkscape:connector-curvature="0" id="path4240" d="m 5.77,0 -8.65,5 0,-10 8.65,5 z" style="fill-rule:evenodd;stroke:#000000;stroke-width:1pt;marker-start:none" transform="scale(0.4,0.4)"/>
    </marker>
    <marker inkscape:stockid="TriangleOutM" orient="auto" refY="0" refX="0" id="TriangleOutM-4" style="overflow:visible">
      <path inkscape:connector-curvature="0" id="path4117" d="m 5.77,0 -8.65,5 0,-10 8.65,5 z" style="fill-rule:evenodd;stroke:#000000;stroke-width:1pt;marker-start:none" transform="scale(0.4,0.4)"/>
    </marker>
    <marker inkscape:stockid="TriangleOutM" orient="auto" refY="0" refX="0" id="marker6538" style="overflow:visible">
      <path inkscape:connector-curvature="0" id="path6540" d="m 5.77,0 -8.65,5 0,-10 8.65,5 z" style="fill-rule:evenodd;stroke:#000000;stroke-width:1pt;marker-start:none" transform="scale(0.4,0.4)"/>
    </marker>
  </defs>
  <sodipodi:namedview pagecolor="#ffffff" bordercolor="#666666" borderopacity="1" objecttolerance="10" gridtolerance="10" guidetolerance="10" inkscape:pageopacity="0" inkscape:pageshadow="2" inkscape:window-width="1600" inkscape:window-height="853" id="namedview6" showgrid="true" inkscape:zoom="6.63" inkscape:cx="57.815974" inkscape:cy="44.869156" inkscape:window-x="-4" inkscape:window-y="-4" inkscape:window-maximized="1" inkscape:current-layer="svg2" inkscape:snap-grids="false">
    <inkscape:grid type="xygrid" id="grid3807"/>
  </sodipodi:namedview>
  <path inkscape:connector-curvature="0" id="path5427" d="m 5.0244613,19.605338 0,39.529413 1.5811765,0 0,-39.529413 -1.5811765,0 z" style="font-size:medium;font-style:normal;font-variant:normal;font-weight:normal;font-stretch:normal;text-indent:0;text-align:start;text-decoration:none;line-height:normal;letter-spacing:normal;word-spacing:normal;text-transform:none;direction:ltr;block-progression:tb;writing-mode:lr-tb;text-anchor:start;baseline-shift:baseline;color:#000000;fill:#000000;fill-opacity:1;stroke:none;stroke-width:12;marker:none;visibility:visible;display:inline;overflow:visible;enable-background:accumulate;font-family:Sans;-inkscape-font-specification:Sans"/>
  <path inkscape:connector-curvature="0" id="rect6209" d="m 3.1797553,40.686018 5.2705884,0 c 1.0949648,0 1.9764703,0.881506 1.9764703,1.976471 0,1.094964 -0.8815055,1.97647 -1.9764703,1.97647 l -5.2705884,0 c -1.0949647,0 -1.9764706,-0.881506 -1.9764706,-1.97647 0,-1.094965 0.8815059,-1.976471 1.9764706,-1.976471 z" style="fill:#00000c;fill-opacity:1;stroke:none"/>
  <path inkscape:connector-curvature="0" id="path6211" d="m 18.859762,19.605378 0,39.529413 1.581177,0 0,-39.529413 -1.581177,0 z" style="font-size:medium;font-style:normal;font-variant:normal;font-weight:normal;font-stretch:normal;text-indent:0;text-align:start;text-decoration:none;line-height:normal;letter-spacing:normal;word-spacing:normal;text-transform:none;direction:ltr;block-progression:tb;writing-mode:lr-tb;text-anchor:start;baseline-shift:baseline;color:#000000;fill:#000000;fill-opacity:1;stroke:none;stroke-width:12;marker:none;visibility:visible;display:inline;overflow:visible;enable-background:accumulate;font-family:Sans;-inkscape-font-specification:Sans"/>
  <path inkscape:connector-curvature="0" id="rect6213" d="m 17.015056,30.144881 5.270589,0 c 1.094964,0 1.97647,0.881506 1.97647,1.976471 0,1.094965 -0.881506,1.976471 -1.97647,1.976471 l -5.270589,0 c -1.094964,0 -1.97647,-0.881506 -1.97647,-1.976471 0,-1.094965 0.881506,-1.976471 1.97647,-1.976471 z" style="fill:#00000c;fill-opacity:1;stroke:none"/>
  <path inkscape:connector-curvature="0" id="path6215" d="m 32.69505,19.605388 0,39.529413 1.581177,0 0,-39.529413 -1.581177,0 z" style="font-size:medium;font-style:normal;font-variant:normal;font-weight:normal;font-stretch:normal;text-indent:0;text-align:start;text-decoration:none;line-height:normal;letter-spacing:normal;word-spacing:normal;text-transform:none;direction:ltr;block-progression:tb;writing-mode:lr-tb;text-anchor:start;baseline-shift:baseline;color:#000000;fill:#000000;fill-opacity:1;stroke:none;stroke-width:12;marker:none;visibility:visible;display:inline;overflow:visible;enable-background:accumulate;font-family:Sans;-inkscape-font-specification:Sans"/>
  <path inkscape:connector-curvature="0" id="rect6217" d="m 30.850344,47.274304 5.270589,0 c 1.094965,0 1.97647,0.881505 1.97647,1.97647 0,1.094965 -0.881505,1.976471 -1.97647,1.976471 l -5.270589,0 c -1.094964,0 -1.97647,-0.881506 -1.97647,-1.976471 0,-1.094965 0.881506,-1.97647 1.97647,-1.97647 z" style="fill:#00000c;fill-opacity:1;stroke:none"/>
  <path inkscape:connector-curvature="0" id="path6219" d="m 46.530351,19.605408 0,39.529413 1.581177,0 0,-39.529413 -1.581177,0 z" style="font-size:medium;font-style:normal;font-variant:normal;font-weight:normal;font-stretch:normal;text-indent:0;text-align:start;text-decoration:none;line-height:normal;letter-spacing:normal;word-spacing:normal;text-transform:none;direction:ltr;block-progression:tb;writing-mode:lr-tb;text-anchor:start;baseline-shift:baseline;color:#000000;fill:#000000;fill-opacity:1;stroke:none;stroke-width:12;marker:none;visibility:visible;display:inline;overflow:visible;enable-background:accumulate;font-family:Sans;-inkscape-font-specification:Sans"/>
  <path inkscape:connector-curvature="0" id="rect6221" d="m 44.685645,39.368441 5.270589,0 c 1.094965,0 1.97647,0.881506 1.97647,1.976471 0,1.094964 -0.881505,1.97647 -1.97647,1.97647 l -5.270589,0 c -1.094964,0 -1.97647,-0.881506 -1.97647,-1.97647 0,-1.094965 0.881506,-1.976471 1.97647,-1.976471 z" style="fill:#00000c;fill-opacity:1;stroke:none"/>
  <path inkscape:connector-curvature="0" id="path6223" d="m 60.365642,19.605408 0,39.529413 1.581177,0 0,-39.529413 -1.581177,0 z" style="font-size:medium;font-style:normal;font-variant:normal;font-weight:normal;font-stretch:normal;text-indent:0;text-align:start;text-decoration:none;line-height:normal;letter-spacing:normal;word-spacing:normal;text-transform:none;direction:ltr;block-progression:tb;writing-mode:lr-tb;text-anchor:start;baseline-shift:baseline;color:#000000;fill:#000000;fill-opacity:1;stroke:none;stroke-width:12;marker:none;visibility:visible;display:inline;overflow:visible;enable-background:accumulate;font-family:Sans;-inkscape-font-specification:Sans"/>
  <path inkscape:connector-curvature="0" id="rect6225" d="m 58.520936,40.686088 5.270589,0 c 1.094965,0 1.97647,0.881506 1.97647,1.976471 0,1.094964 -0.881505,1.97647 -1.97647,1.97647 l -5.270589,0 c -1.094964,0 -1.97647,-0.881506 -1.97647,-1.97647 0,-1.094965 0.881506,-1.976471 1.97647,-1.976471 z" style="fill:#00000c;fill-opacity:1;stroke:none"/>
  <path inkscape:connector-curvature="0" id="path6227" d="m 74.200934,19.605338 0,39.529413 1.581177,0 0,-39.529413 -1.581177,0 z" style="font-size:medium;font-style:normal;font-variant:normal;font-weight:normal;font-stretch:normal;text-indent:0;text-align:start;text-decoration:none;line-height:normal;letter-spacing:normal;word-spacing:normal;text-transform:none;direction:ltr;block-progression:tb;writing-mode:lr-tb;text-anchor:start;baseline-shift:baseline;color:#000000;fill:#000000;fill-opacity:1;stroke:none;stroke-width:12;marker:none;visibility:visible;display:inline;overflow:visible;enable-background:accumulate;font-family:Sans;-inkscape-font-specification:Sans"/>
  <path inkscape:connector-curvature="0" id="rect6229" d="m 72.356228,26.1919 5.270589,0 c 1.094964,0 1.97647,0.881506 1.97647,1.976471 0,1.094964 -0.881506,1.97647 -1.97647,1.97647 l -5.270589,0 c -1.094965,0 -1.976471,-0.881506 -1.976471,-1.97647 0,-1.094965 0.881506,-1.976471 1.976471,-1.976471 z" style="fill:#00000c;fill-opacity:1;stroke:none"/>
  <path inkscape:connector-curvature="0" id="path6826" style="font-size:10.62870884px;font-style:normal;font-variant:normal;font-weight:normal;font-stretch:normal;text-align:start;line-height:125%;letter-spacing:0px;word-spacing:0px;writing-mode:lr-tb;text-anchor:start;fill:#000000;fill-opacity:1;stroke:none;font-family:Georgia;-inkscape-font-specification:Georgia" d="m 7.3616268,63.308049 -3.0931204,0 0,-0.814798 3.0931204,0 z"/>
  <path style="font-size:80.66430664px;font-style:normal;font-variant:normal;font-weight:normal;font-stretch:normal;text-align:start;line-height:125%;letter-spacing:0px;word-spacing:0px;writing-mode:lr-tb;text-anchor:start;fill:#000000;fill-opacity:1;stroke:none;font-family:Georgia;-inkscape-font-specification:Georgia" d="m 8.4852068,15.706684 -2.3405998,0 0,2.340602 -0.6591042,0 0,-2.340602 -2.3405998,0 0,-0.648718 2.3405998,0 0,-2.340602 0.6591042,0 0,2.340602 2.3405998,0 z" id="path6772" inkscape:connector-curvature="0"/>
  <path style="font-size:80.66430664px;font-style:normal;font-variant:normal;font-weight:normal;font-stretch:normal;text-align:start;line-height:125%;letter-spacing:0px;word-spacing:0px;writing-mode:lr-tb;text-anchor:start;fill:#000000;fill-opacity:1;stroke:none;font-family:Georgia;-inkscape-font-specification:Georgia" d="m 22.320497,15.706684 -2.3406,0 0,2.340602 -0.659104,0 0,-2.340602 -2.3406,0 0,-0.648718 2.3406,0 0,-2.340602 0.659104,0 0,2.340602 2.3406,0 z" id="path6766" inkscape:connector-curvature="0"/>
  <path style="font-size:80.66430664px;font-style:normal;font-variant:normal;font-weight:normal;font-stretch:normal;text-align:start;line-height:125%;letter-spacing:0px;word-spacing:0px;writing-mode:lr-tb;text-anchor:start;fill:#000000;fill-opacity:1;stroke:none;font-family:Georgia;-inkscape-font-specification:Georgia" d="m 21.084763,63.308055 -3.093122,0 0,-0.814793 3.093122,0 z" id="path6769" inkscape:connector-curvature="0"/>
  <path style="font-size:80.66430664px;font-style:normal;font-variant:normal;font-weight:normal;font-stretch:normal;text-align:start;line-height:125%;letter-spacing:0px;word-spacing:0px;writing-mode:lr-tb;text-anchor:start;fill:#000000;fill-opacity:1;stroke:none;font-family:Georgia;-inkscape-font-specification:Georgia" d="m 36.155805,15.706684 -2.3406,0 0,2.340602 -0.659104,0 0,-2.340602 -2.3406,0 0,-0.648718 2.3406,0 0,-2.340602 0.659104,0 0,2.340602 2.3406,0 z" id="path6760" inkscape:connector-curvature="0"/>
  <path style="font-size:80.66430664px;font-style:normal;font-variant:normal;font-weight:normal;font-stretch:normal;text-align:start;line-height:125%;letter-spacing:0px;word-spacing:0px;writing-mode:lr-tb;text-anchor:start;fill:#000000;fill-opacity:1;stroke:none;font-family:Georgia;-inkscape-font-specification:Georgia" d="m 34.920071,63.308055 -3.093122,0 0,-0.814793 3.093122,0 z" id="path6763" inkscape:connector-curvature="0"/>
  <path style="font-size:80.66430664px;font-style:normal;font-variant:normal;font-weight:normal;font-stretch:normal;text-align:start;line-height:125%;letter-spacing:0px;word-spacing:0px;writing-mode:lr-tb;text-anchor:start;fill:#000000;fill-opacity:1;stroke:none;font-family:Georgia;-inkscape-font-specification:Georgia" d="m 49.991095,15.706684 -2.3406,0 0,2.340602 -0.659104,0 0,-2.340602 -2.3406,0 0,-0.648718 2.3406,0 0,-2.340602 0.659104,0 0,2.340602 2.3406,0 z" id="path6754" inkscape:connector-curvature="0"/>
  <path style="font-size:80.66430664px;font-style:normal;font-variant:normal;font-weight:normal;font-stretch:normal;text-align:start;line-height:125%;letter-spacing:0px;word-spacing:0px;writing-mode:lr-tb;text-anchor:start;fill:#000000;fill-opacity:1;stroke:none;font-family:Georgia;-inkscape-font-specification:Georgia" d="m 48.755361,63.308055 -3.093122,0 0,-0.814793 3.093122,0 z" id="path6757" inkscape:connector-curvature="0"/>
  <path style="font-size:80.66430664px;font-style:normal;font-variant:normal;font-weight:normal;font-stretch:normal;text-align:start;line-height:125%;letter-spacing:0px;word-spacing:0px;writing-mode:lr-tb;text-anchor:start;fill:#000000;fill-opacity:1;stroke:none;font-family:Georgia;-inkscape-font-specification:Georgia" d="m 63.826395,15.706684 -2.3406,0 0,2.340602 -0.659104,0 0,-2.340602 -2.3406,0 0,-0.648718 2.3406,0 0,-2.340602 0.659104,0 0,2.340602 2.3406,0 z" id="path6748" inkscape:connector-curvature="0"/>
  <path style="font-size:80.66430664px;font-style:normal;font-variant:normal;font-weight:normal;font-stretch:normal;text-align:start;line-height:125%;letter-spacing:0px;word-spacing:0px;writing-mode:lr-tb;text-anchor:start;fill:#000000;fill-opacity:1;stroke:none;font-family:Georgia;-inkscape-font-specification:Georgia" d="m 62.590661,63.308055 -3.093122,0 0,-0.814793 3.093122,0 z" id="path6751" inkscape:connector-curvature="0"/>
  <path style="font-size:80.66430664px;font-style:normal;font-variant:normal;font-weight:normal;font-stretch:normal;text-align:start;line-height:125%;letter-spacing:0px;word-spacing:0px;writing-mode:lr-tb;text-anchor:start;fill:#000000;fill-opacity:1;stroke:none;font-family:Georgia;-inkscape-font-specification:Georgia" d="m 77.661685,15.706684 -2.3406,0 0,2.340602 -0.659104,0 0,-2.340602 -2.3406,0 0,-0.648718 2.3406,0 0,-2.340602 0.659104,0 0,2.340602 2.3406,0 z" id="path6742" inkscape:connector-curvature="0"/>
  <path style="font-size:80.66430664px;font-style:normal;font-variant:normal;font-weight:normal;font-stretch:normal;text-align:start;line-height:125%;letter-spacing:0px;word-spacing:0px;writing-mode:lr-tb;text-anchor:start;fill:#000000;fill-opacity:1;stroke:none;font-family:Georgia;-inkscape-font-specification:Georgia" d="m 76.425951,63.308055 -3.093122,0 0,-0.814793 3.093122,0 z" id="path6745" inkscape:connector-curvature="0"/>
</svg>