<?xml version="1.0" encoding="UTF-8" standalone="no"?>
<!-- Created with Inkscape (http://www.inkscape.org/) -->

<svg
   xmlns:dc="http://purl.org/dc/elements/1.1/"
   xmlns:cc="http://creativecommons.org/ns#"
   xmlns:rdf="http://www.w3.org/1999/02/22-rdf-syntax-ns#"
   xmlns:svg="http://www.w3.org/2000/svg"
   xmlns="http://www.w3.org/2000/svg"
   xmlns:sodipodi="http://sodipodi.sourceforge.net/DTD/sodipodi-0.dtd"
   xmlns:inkscape="http://www.inkscape.org/namespaces/inkscape"
   width="119.999"
   height="119.91598"
   id="svg2"
   version="1.1"
   inkscape:version="0.48.1 "
   sodipodi:docname="interface.svg">
  <defs
     id="defs4" />
  <sodipodi:namedview
     id="base"
     pagecolor="#ffffff"
     bordercolor="#666666"
     borderopacity="1.0"
     inkscape:pageopacity="0.0"
     inkscape:pageshadow="2"
     inkscape:zoom="1.1612297"
     inkscape:cx="-63.935247"
     inkscape:cy="144.99469"
     inkscape:document-units="px"
     inkscape:current-layer="layer1"
     showgrid="false"
     fit-margin-top="10"
     fit-margin-left="10"
     fit-margin-bottom="10"
     fit-margin-right="10"
     inkscape:window-width="1366"
     inkscape:window-height="746"
     inkscape:window-x="-8"
     inkscape:window-y="-8"
     inkscape:window-maximized="1" />
  <metadata
     id="metadata7">
    <rdf:RDF>
      <cc:Work
         rdf:about="">
        <dc:format>image/svg+xml</dc:format>
        <dc:type
           rdf:resource="http://purl.org/dc/dcmitype/StillImage" />
        <dc:title></dc:title>
      </cc:Work>
    </rdf:RDF>
  </metadata>
  <g
     inkscape:label="Layer 1"
     inkscape:groupmode="layer"
     id="layer1"
     transform="translate(-6.0005,-8.40419)">
    <g
       id="g7867"
       transform="matrix(0.83460688,0,0,0.83460688,24.407366,26.077239)">
      <path
         id="path7857"
         d="M 92.359,73.148 C 89.836,67.31 86.695,60.044 86.695,47.078 86.695,23.216 70.019,3.804 49.524,3.804 c -20.495,0 -37.17,19.413 -37.17,43.274 0,16.334 -3.563,25.502 -5.921,31.568 -1.254,3.229 -2.246,5.781 -2.246,8.16 0,0.604 0.177,1.022 0.54,1.283 0.359,0.258 0.926,0.389 1.685,0.389 1.905,0 4.729,-0.815 7.46,-1.604 2.784,-0.806 5.663,-1.638 7.684,-1.638 0.226,0 0.441,0.011 0.641,0.029 4.319,0.443 5.987,3.385 7.46,5.979 1.026,1.808 1.995,3.517 3.728,4.366 0.531,0.262 1.157,0.39 1.913,0.39 2.435,0 5.67,-1.349 8.8,-2.651 3.13,-1.304 6.086,-2.535 8.364,-2.535 3.259,0 6.33,1.912 9.298,3.764 2.434,1.518 4.733,2.947 6.693,2.947 0.454,0 0.869,-0.074 1.268,-0.229 3.508,-1.359 4.442,-3.081 5.436,-4.904 0.783,-1.438 1.592,-2.925 3.68,-4.131 1.914,-1.105 4.825,-1.197 7.404,-1.197 0.419,0 0.838,0.004 1.253,0.006 0.409,0.002 0.815,0.006 1.217,0.006 4.392,0 6.772,-0.438 6.772,-2.739 -0.003,-3.974 -1.45,-7.316 -3.124,-11.189 z M 54.21,45.462 c -3.554,0 -6.8,-2.584 -8.079,-6.43 -0.066,-0.201 -0.255,-0.336 -0.466,-0.336 -0.211,0 -0.399,0.136 -0.465,0.336 -1.278,3.846 -4.525,6.43 -8.08,6.43 -4.771,0 -8.652,-4.494 -8.652,-10.016 0,-5.522 3.881,-10.015 8.652,-10.015 3.556,0 6.802,2.581 8.08,6.42 0.066,0.201 0.254,0.336 0.465,0.336 0.211,0 0.399,-0.135 0.466,-0.336 1.277,-3.84 4.523,-6.42 8.079,-6.42 4.771,0 8.651,4.493 8.651,10.015 0,5.522 -3.881,10.016 -8.651,10.016 z"
         inkscape:connector-curvature="0"
         style="fill:#000000" />
      <path
         d="m 56.001,37.253 c 0,2.196 -1.772,3.976 -3.959,3.976 -2.188,0 -3.96,-1.78 -3.96,-3.976 l 0,0 c 0,-2.195 1.772,-3.975 3.96,-3.975 2.187,0 3.959,1.78 3.959,3.975 z"
         id="path2389"
         inkscape:connector-curvature="0"
         style="fill:#000000" />
      <path
         d="m 43.437,37.253 c 0,2.196 -1.772,3.976 -3.96,3.976 -2.186,0 -3.959,-1.78 -3.959,-3.976 l 0,0 c 0,-2.195 1.773,-3.975 3.959,-3.975 2.187,0 3.96,1.78 3.96,3.975 z"
         id="path2396"
         inkscape:connector-curvature="0"
         style="fill:#000000" />
    </g>
    <rect
       style="color:#000000;fill:none;stroke:#000000;stroke-width:4;stroke-opacity:1;marker:none;visibility:visible;display:inline;overflow:visible;enable-background:accumulate;stroke-miterlimit:4;stroke-dasharray:12,12;stroke-dashoffset:2;stroke-linecap:round;stroke-linejoin:round"
       id="rect7872"
       width="98.171791"
       height="98.171791"
       x="16.914104"
       y="19.276283" />
  </g>
</svg>
